<?xml version="1.0" standalone="no"?>
<!DOCTYPE svg PUBLIC "-//W3C//DTD SVG 20010904//EN"
 "http://www.w3.org/TR/2001/REC-SVG-20010904/DTD/svg10.dtd">
<svg version="1.0" xmlns="http://www.w3.org/2000/svg"
 width="2576.000000pt" height="1976.000000pt" viewBox="0 0 2576.000000 1976.000000"
 preserveAspectRatio="xMidYMid meet">

<g transform="translate(0.000000,1976.000000) scale(0.100000,-0.100000)"
fill="#F1AC6D" stroke="none">
<path d="M21224 19272 c-21 -16 -61 -55 -89 -87 -27 -31 -58 -67 -69 -79 -10
-11 -30 -39 -43 -61 -42 -66 -69 -85 -126 -85 -27 0 -77 -10 -109 -22 -54 -19
-66 -20 -133 -10 -45 7 -84 8 -103 2 -28 -8 -130 -58 -142 -70 -14 -14 -70
-50 -79 -50 -5 0 -11 -4 -13 -8 -1 -5 -52 -46 -113 -92 -152 -116 -195 -158
-235 -236 -20 -40 -65 -100 -111 -148 -119 -127 -134 -159 -159 -331 -6 -44
-18 -109 -26 -144 -16 -64 -13 -124 6 -159 5 -9 19 -39 30 -65 21 -47 21 -49
3 -62 -10 -7 -31 -16 -48 -19 -73 -14 -149 -42 -172 -64 -22 -20 -25 -29 -19
-65 4 -23 16 -59 26 -80 11 -21 20 -44 20 -52 0 -8 3 -15 8 -15 4 0 18 -24 32
-52 13 -29 30 -59 37 -66 7 -7 13 -17 13 -22 0 -5 24 -44 54 -87 29 -43 77
-128 106 -188 28 -61 71 -139 95 -175 59 -90 65 -104 65 -144 0 -45 -17 -47
-62 -8 -103 88 -376 222 -451 222 -47 0 -67 -39 -67 -126 0 -30 -5 -54 -10
-54 -6 0 -27 11 -48 25 -21 14 -73 34 -116 45 -42 11 -85 25 -94 29 -63 34
-217 104 -243 111 -46 13 -110 -2 -214 -51 -71 -33 -225 -71 -361 -89 -232
-31 -310 -64 -425 -180 -64 -65 -119 -156 -119 -198 0 -19 38 -32 99 -32 13 0
52 -14 88 -32 70 -34 173 -135 208 -204 11 -22 23 -41 26 -44 3 -3 21 -36 41
-75 46 -91 72 -139 78 -145 3 -3 22 -30 42 -60 45 -66 80 -101 129 -127 49
-26 61 -39 89 -98 13 -27 38 -70 57 -95 36 -50 34 -47 83 -109 39 -51 46 -106
17 -138 -10 -12 -17 -36 -17 -58 0 -31 6 -44 36 -70 20 -18 57 -42 83 -54 25
-12 54 -26 63 -32 10 -5 23 -9 29 -9 5 0 34 -11 64 -24 36 -17 62 -38 81 -66
56 -81 90 -114 172 -167 85 -55 87 -58 137 -178 20 -51 33 -59 137 -85 46 -12
99 -32 119 -45 23 -15 77 -31 145 -45 124 -24 167 -39 225 -76 32 -20 55 -26
107 -27 l67 -2 -1 -35 c-1 -32 -17 -70 -91 -227 -19 -41 -78 -137 -99 -162 -2
-2 -39 14 -82 36 -42 22 -99 48 -127 58 -27 9 -59 21 -70 25 -25 11 -111 35
-193 55 -102 24 -347 35 -808 35 -463 0 -443 -2 -569 55 -54 24 -90 39 -150
65 -11 4 -47 18 -80 30 -33 12 -68 27 -79 32 -10 5 -61 12 -112 15 -79 5 -103
3 -156 -15 -171 -58 -297 -167 -376 -325 -36 -73 -38 -80 -51 -172 -11 -79 -1
-177 23 -226 33 -67 21 -71 -120 -39 -260 59 -520 77 -660 44 -59 -13 -190
-68 -204 -85 -10 -12 -110 -79 -118 -79 -4 0 -13 47 -19 105 -6 58 -15 111
-21 118 -5 6 -13 23 -17 37 -20 64 -123 180 -201 226 -139 81 -261 95 -407 44
-48 -16 -89 -30 -92 -30 -23 0 18 50 153 187 225 228 276 312 252 412 -23 95
-100 198 -170 228 -71 31 -267 26 -329 -7 -9 -5 -61 -31 -116 -58 -55 -28
-131 -67 -170 -87 -198 -106 -242 -127 -327 -155 -85 -29 -97 -31 -144 -20
-105 23 -143 102 -180 372 -24 176 -34 187 -61 77 -23 -94 -23 -368 0 -427 24
-62 68 -114 135 -159 57 -38 58 -38 157 -38 106 0 216 26 342 81 17 8 36 14
42 14 6 0 19 4 29 10 9 5 40 19 67 30 76 32 118 50 140 60 36 17 199 68 236
74 41 7 69 0 69 -18 0 -13 -82 -93 -248 -245 -109 -99 -149 -160 -196 -302
-64 -190 -81 -287 -80 -449 1 -137 2 -150 33 -240 61 -175 139 -301 229 -370
25 -19 50 -39 56 -45 20 -19 141 -74 201 -92 50 -15 97 -18 280 -18 219 0 220
0 278 27 44 21 87 57 175 145 65 65 137 142 162 172 25 30 47 57 50 60 3 3 22
21 43 39 36 31 42 32 121 32 89 0 233 -19 373 -49 128 -28 312 -70 353 -80 19
-5 55 -12 80 -16 25 -4 65 -13 90 -22 48 -16 59 -20 132 -52 26 -12 54 -21 62
-21 9 0 16 -4 16 -9 0 -5 12 -12 27 -16 15 -3 50 -17 78 -29 27 -13 75 -33
105 -45 30 -12 64 -26 75 -31 82 -38 122 -45 280 -45 l160 0 50 33 c106 71
157 168 158 302 1 72 -3 94 -26 144 -68 148 -197 207 -657 301 -316 65 -422
116 -406 195 8 44 67 130 115 172 74 63 121 60 331 -22 214 -84 271 -94 520
-94 120 1 290 8 386 17 191 19 518 22 603 7 228 -41 256 -48 386 -93 108 -37
120 -53 91 -119 -8 -18 -21 -49 -30 -70 -9 -20 -16 -41 -16 -47 0 -6 -4 -11
-10 -11 -5 0 -10 -6 -10 -12 0 -15 -68 -62 -155 -108 -33 -18 -102 -59 -154
-91 -51 -33 -97 -59 -102 -59 -5 0 -9 -4 -9 -10 0 -5 -4 -10 -9 -10 -9 0 -105
-60 -128 -80 -7 -5 -14 -10 -16 -10 -2 0 -55 -34 -118 -75 -63 -41 -119 -75
-126 -75 -6 0 -13 -4 -15 -8 -4 -11 -157 -101 -243 -143 -38 -19 -72 -36 -75
-39 -3 -3 -50 -23 -105 -44 -55 -21 -109 -42 -120 -47 -11 -4 -51 -18 -90 -29
-38 -12 -79 -25 -90 -29 -171 -64 -722 -191 -1070 -247 -237 -38 -532 -81
-750 -108 -71 -9 -159 -21 -195 -26 -36 -6 -114 -15 -175 -20 -60 -5 -164 -14
-230 -20 -305 -27 -1331 -27 -1475 0 -160 31 -215 42 -445 89 -352 72 -388 78
-500 96 -55 8 -127 20 -160 26 -158 27 -575 27 -764 -1 -312 -46 -611 -101
-799 -146 -56 -14 -107 -22 -112 -19 -6 4 -24 33 -41 66 l-30 60 118 -6 c101
-6 131 -4 205 14 48 11 106 32 128 46 22 14 43 25 46 25 10 0 95 70 132 110
45 47 114 152 147 223 53 114 58 329 10 431 -33 69 -48 89 -131 171 -74 74
-150 118 -259 152 -87 26 -325 26 -410 -1 -100 -32 -177 -90 -270 -207 -22
-27 -45 -72 -69 -131 -9 -23 -22 -38 -32 -38 -15 0 -16 10 -11 86 2 47 10 91
16 97 6 6 11 20 11 32 0 11 6 31 13 45 7 14 24 54 37 90 13 36 27 70 30 75 14
19 62 161 81 240 23 97 24 157 4 239 -14 53 -69 182 -84 196 -3 3 -24 28 -45
55 -22 28 -63 73 -92 100 -53 52 -60 57 -134 115 -25 19 -47 37 -50 40 -10 12
-179 110 -214 125 -42 18 -86 20 -86 4 0 -11 37 -78 49 -89 4 -3 24 -27 46
-55 21 -27 42 -52 45 -55 15 -14 114 -145 165 -220 87 -128 117 -198 117 -273
-1 -82 -17 -128 -124 -347 -139 -282 -138 -280 -138 -440 0 -208 32 -279 230
-504 24 -28 53 -62 65 -75 11 -13 35 -40 52 -60 18 -20 33 -42 33 -48 0 -7 4
-13 8 -13 11 0 52 -82 52 -104 0 -9 5 -16 10 -16 6 0 10 -6 10 -13 0 -7 16
-36 35 -66 19 -29 35 -55 35 -58 0 -4 11 -21 25 -39 14 -18 25 -37 25 -42 0
-5 -24 -15 -52 -21 -29 -7 -80 -18 -113 -26 -354 -84 -524 -113 -725 -125
-339 -20 -790 -7 -1030 30 -74 11 -166 25 -205 31 -136 19 -164 28 -171 58 -4
14 -10 31 -13 36 -4 6 -17 37 -30 70 -13 33 -29 74 -36 90 -7 17 -18 41 -23
55 -34 80 -54 127 -62 145 -5 11 -18 43 -30 70 -12 28 -25 59 -30 70 -5 11
-18 43 -30 70 -12 28 -27 64 -35 80 -7 17 -20 53 -29 80 -23 69 -41 106 -100
204 -69 116 -147 277 -149 309 l-2 27 67 -3 c71 -4 88 2 153 52 70 54 97 66
210 91 107 24 149 38 180 59 39 28 94 52 136 61 48 9 111 39 147 70 24 20 34
39 43 86 16 80 54 131 123 164 68 32 155 116 163 158 3 17 25 49 47 71 39 39
134 96 159 96 6 0 44 16 85 37 83 41 126 84 143 143 11 37 10 43 -9 68 -12 15
-30 41 -39 59 -15 30 -15 33 7 75 12 23 38 63 58 87 70 86 123 175 136 227 7
29 52 84 68 84 11 0 30 15 88 70 50 48 67 75 207 350 115 224 129 249 161 283
45 47 123 93 207 122 107 36 125 49 125 85 0 88 -206 290 -350 343 -77 29
-140 38 -310 47 -149 7 -259 25 -315 50 -51 23 -264 90 -287 90 -33 0 -84 -18
-128 -45 -47 -29 -168 -95 -205 -112 -16 -8 -37 -18 -46 -23 -9 -4 -38 -12
-65 -16 -53 -8 -104 -36 -143 -78 -14 -14 -28 -26 -33 -26 -4 0 -8 25 -8 55 0
56 -21 115 -52 147 -19 19 -68 24 -96 9 -9 -5 -66 -34 -127 -63 -60 -29 -116
-59 -123 -65 -7 -7 -17 -13 -22 -13 -13 0 -140 -88 -175 -120 -52 -49 -85 -44
-85 11 0 31 11 58 53 122 61 96 77 128 109 220 12 37 26 67 30 67 5 0 8 7 8
16 0 17 41 97 53 102 4 2 7 8 7 14 0 6 23 48 51 95 64 105 139 253 139 273 0
9 4 20 10 26 16 16 24 128 11 152 -15 29 -58 46 -174 73 -54 12 -101 28 -104
35 -6 16 8 77 38 163 22 63 22 64 5 125 -26 90 -44 172 -56 254 -12 88 -46
162 -101 222 -172 186 -173 188 -240 286 -62 92 -82 112 -171 170 -37 24 -116
78 -175 121 -249 181 -314 204 -510 178 -49 -6 -73 -4 -115 10 -29 10 -91 21
-138 24 l-85 6 -85 113 c-120 159 -222 252 -275 252 -34 0 -70 -40 -94 -104
-40 -108 -86 -358 -96 -526 -9 -156 -21 -200 -69 -259 -23 -28 -53 -82 -69
-124 -15 -41 -50 -106 -78 -143 l-51 -69 7 -92 7 -92 -49 -48 c-87 -85 -103
-113 -103 -178 0 -49 8 -74 55 -172 30 -63 55 -125 55 -136 0 -20 -20 -85 -41
-132 -37 -85 -81 -216 -81 -244 0 -26 10 -43 44 -80 39 -40 108 -141 108 -157
0 -7 38 -93 57 -129 17 -32 119 -134 174 -175 105 -77 208 -207 195 -247 -10
-32 -64 -56 -137 -61 -66 -4 -69 -4 -96 27 -16 17 -43 57 -60 90 -131 247
-217 384 -298 469 l-52 55 -6 165 c-4 91 -7 213 -7 271 0 129 -17 275 -36 317
-8 17 -30 46 -49 64 -19 19 -35 40 -35 47 0 7 -4 13 -9 13 -10 0 -36 100 -46
178 -10 75 -40 168 -67 208 -26 38 -62 45 -112 19 -89 -47 -253 -59 -328 -25
-43 20 -79 40 -88 51 -18 20 -188 112 -275 149 -27 12 -59 25 -70 30 -121 53
-245 66 -245 25 0 -7 -9 -24 -21 -39 -32 -41 -95 -35 -309 29 -169 51 -383 72
-420 42 -26 -21 -46 -60 -59 -114 -15 -59 -4 -55 -166 -73 -112 -13 -135 -20
-262 -81 -118 -56 -191 -81 -318 -110 -301 -69 -436 -136 -580 -285 -77 -80
-80 -84 -95 -125 -26 -71 28 -121 232 -217 57 -27 121 -57 143 -66 62 -27 158
-76 179 -92 22 -15 23 11 -15 -384 -10 -107 -1 -155 33 -187 13 -12 69 -45
126 -74 125 -65 142 -79 142 -125 0 -45 24 -90 69 -130 32 -29 34 -35 26 -60
-15 -40 -54 -64 -118 -73 -31 -4 -59 -10 -62 -13 -5 -5 10 -48 41 -115 8 -17
14 -36 14 -42 0 -6 4 -19 10 -29 5 -9 19 -39 30 -67 12 -27 25 -59 30 -70 75
-170 118 -249 177 -322 19 -24 47 -72 64 -108 30 -68 75 -118 204 -228 99 -86
97 -83 85 -104 -24 -44 -102 -252 -107 -289 -5 -37 -2 -43 31 -72 114 -100
417 -194 553 -172 76 13 588 34 818 34 161 0 187 -3 244 -23 79 -27 128 -61
166 -115 26 -35 29 -49 29 -111 0 -52 -5 -77 -19 -100 -48 -73 -86 -80 -211
-40 -302 97 -492 158 -509 165 -60 24 -152 40 -231 40 -69 0 -106 6 -164 26
-41 14 -165 48 -275 75 -110 28 -251 66 -312 85 -100 31 -116 40 -147 76 -19
22 -50 72 -69 111 -52 109 -197 399 -210 422 -51 87 -117 171 -180 230 -94 89
-85 82 -197 137 -174 85 -276 108 -481 108 -168 0 -301 -25 -399 -77 -14 -7
-31 -13 -37 -13 -7 0 -13 -4 -13 -10 0 -5 -6 -10 -14 -10 -27 0 -177 -122
-231 -187 -44 -54 -98 -148 -135 -238 -21 -50 -40 -158 -40 -227 0 -82 20
-202 52 -313 11 -38 25 -88 30 -110 6 -22 14 -44 18 -50 4 -5 11 -26 15 -45 4
-19 11 -39 15 -45 4 -5 11 -26 15 -45 4 -19 11 -40 16 -45 4 -6 12 -30 17 -53
12 -50 8 -51 -83 -25 -93 26 -436 25 -525 -1 -64 -19 -276 -122 -304 -148 -9
-7 -21 -18 -28 -23 -149 -116 -199 -164 -274 -260 -21 -27 -41 -52 -44 -55
-12 -12 -44 -71 -85 -155 -87 -178 -97 -397 -28 -607 21 -66 67 -161 104 -216
16 -24 29 -47 29 -53 0 -5 3 -9 8 -9 4 0 18 -17 32 -38 31 -46 32 -47 75 -100
19 -24 35 -49 35 -56 0 -6 -35 -24 -78 -40 -141 -53 -221 -118 -296 -241 -49
-80 -77 -158 -96 -263 -12 -63 -11 -81 4 -143 20 -84 48 -131 107 -182 80 -69
116 -86 210 -98 80 -10 292 3 313 20 15 11 97 33 102 28 6 -6 -17 -59 -34 -75
-7 -8 -20 -28 -29 -45 -9 -18 -19 -34 -22 -37 -3 -3 -13 -17 -21 -32 -8 -15
-56 -93 -107 -175 -98 -158 -157 -267 -188 -348 -17 -43 -20 -75 -20 -235 0
-207 -2 -199 81 -316 42 -59 101 -114 122 -114 6 0 12 -3 14 -8 3 -7 132 -72
144 -72 3 0 20 -7 37 -15 44 -20 106 -34 212 -50 158 -22 148 5 -40 105 -296
158 -398 292 -365 478 12 73 14 76 59 172 25 52 122 199 168 255 4 6 15 21 24
35 9 14 26 36 38 50 95 114 201 270 254 375 63 125 112 345 123 555 8 132 -5
200 -56 306 -31 65 -198 308 -229 334 -17 15 -81 100 -81 108 0 6 -4 12 -8 14
-29 11 -155 220 -182 301 -45 133 3 264 145 402 68 65 188 155 208 155 5 0 15
6 22 14 8 7 44 19 80 26 71 13 158 9 311 -15 49 -8 121 -20 159 -26 39 -6 113
-9 165 -6 82 4 104 9 155 36 97 52 156 125 200 250 35 102 12 258 -85 551 -61
189 -69 216 -85 290 -29 140 -16 230 42 289 70 69 253 119 372 101 250 -39
313 -105 496 -515 36 -80 104 -212 120 -231 6 -6 17 -22 25 -35 20 -31 158
-169 170 -169 5 0 15 -6 22 -12 41 -39 238 -117 383 -152 131 -32 145 -37 145
-51 0 -8 -11 -17 -24 -21 -29 -7 -65 -74 -105 -199 -28 -88 -30 -91 -82 -122
-30 -18 -60 -32 -66 -33 -7 0 -13 -3 -13 -8 0 -4 -24 -18 -53 -32 -28 -13 -58
-30 -65 -37 -7 -7 -17 -13 -22 -13 -5 0 -41 -19 -82 -43 -40 -23 -91 -51 -113
-62 -22 -11 -41 -23 -43 -27 -2 -5 -8 -8 -13 -8 -8 0 -54 -25 -274 -148 -44
-25 -92 -51 -106 -59 -50 -25 -52 -33 -45 -175 18 -383 18 -815 2 -1041 -19
-246 -29 -295 -98 -447 -64 -139 -62 -130 -29 -141 39 -14 57 -54 71 -159 13
-100 48 -185 80 -195 23 -7 55 5 97 36 23 17 164 141 192 170 29 29 112 81
174 109 72 32 165 50 259 50 58 0 76 5 154 45 105 53 155 69 196 60 32 -7 81
-53 104 -96 20 -39 80 -82 155 -112 100 -40 137 -43 188 -16 l43 22 36 -39
c35 -39 36 -39 111 -38 46 0 98 7 131 19 57 19 155 70 178 92 7 7 16 13 20 13
6 0 53 38 92 73 36 34 143 107 156 107 8 0 14 4 14 9 0 5 13 12 29 16 29 6 62
37 116 110 51 70 329 341 362 354 50 20 73 -1 106 -95 39 -114 69 -266 102
-509 4 -27 11 -58 16 -67 9 -17 12 -17 52 -1 23 9 58 27 77 40 19 13 40 23 46
23 7 0 14 4 16 8 2 4 21 19 43 32 51 31 146 102 193 147 54 50 98 69 176 76
84 8 139 28 231 84 123 75 205 164 275 300 27 53 52 89 63 91 9 2 68 -21 130
-51 151 -74 202 -96 427 -185 181 -72 497 -171 755 -237 215 -56 245 -64 245
-73 -1 -4 -24 -26 -53 -50 -56 -45 -93 -78 -227 -199 -149 -135 -690 -683
-690 -699 0 -3 -15 -21 -32 -41 -18 -20 -37 -41 -43 -47 -5 -6 -28 -34 -50
-61 -21 -28 -42 -52 -45 -55 -4 -3 -30 -36 -58 -75 -29 -38 -59 -79 -68 -90
-8 -11 -28 -37 -42 -57 -26 -37 -52 -50 -52 -26 0 6 -6 19 -14 27 -8 9 -28 42
-45 74 -17 32 -36 64 -41 70 -81 100 -130 153 -182 196 -35 28 -69 56 -76 62
-24 20 -170 89 -229 109 -96 32 -246 45 -349 31 -119 -16 -260 -66 -319 -113
-5 -4 -41 -32 -78 -60 -83 -64 -172 -180 -233 -303 -56 -114 -82 -206 -91
-318 -3 -48 -10 -90 -14 -93 -4 -2 -49 20 -99 51 -50 30 -93 55 -96 55 -3 0
-20 7 -37 15 -44 20 -104 34 -222 52 -114 17 -260 7 -350 -25 -61 -22 -154
-68 -176 -88 -8 -8 -19 -14 -22 -14 -11 0 -57 -40 -120 -103 -107 -109 -183
-246 -223 -406 -43 -167 -31 -388 31 -561 16 -45 83 -186 98 -205 32 -42 114
-150 122 -161 7 -10 -6 -30 -51 -76 -222 -228 -303 -505 -248 -850 l16 -100
-94 -97 c-51 -53 -96 -97 -100 -99 -5 -2 -8 -9 -8 -15 0 -6 -6 -18 -14 -26 -7
-9 -28 -42 -45 -74 -28 -53 -44 -98 -83 -227 -18 -62 -18 -358 0 -420 58 -191
61 -200 117 -296 61 -105 169 -220 275 -294 19 -14 37 -28 40 -31 3 -4 24 -16
46 -27 23 -12 56 -35 73 -52 25 -26 31 -40 31 -75 0 -50 22 -154 45 -211 20
-49 78 -167 86 -174 3 -3 16 -22 29 -44 l23 -38 -39 -77 c-21 -42 -41 -78 -44
-81 -3 -3 -14 -32 -25 -65 -17 -50 -20 -85 -19 -210 1 -220 34 -313 156 -436
129 -129 239 -169 467 -169 116 0 103 15 119 -135 5 -49 15 -110 21 -135 28
-108 112 -244 213 -340 44 -42 145 -102 195 -115 83 -22 269 -22 387 0 l38 8
-18 -29 c-10 -16 -21 -31 -24 -34 -34 -32 -74 -149 -91 -268 -11 -82 -11 -105
5 -199 10 -59 22 -114 27 -123 5 -8 14 -26 19 -40 71 -169 249 -321 430 -366
81 -20 245 -15 305 10 106 45 117 51 199 131 113 108 179 254 192 420 5 71 2
107 -23 235 l-5 25 174 0 c144 0 182 3 228 19 142 49 245 149 328 316 l37 75
0 165 c-1 177 -12 235 -61 328 -13 25 -24 53 -24 62 0 9 20 30 44 45 36 23
198 182 231 226 32 44 67 138 94 252 16 67 14 226 -4 294 -25 97 -35 90 138
95 108 4 166 10 202 22 50 18 136 56 145 66 10 10 69 50 74 50 10 0 74 69 117
126 62 81 74 102 104 175 85 208 78 434 -18 626 -49 97 -50 115 -8 124 18 4
52 15 75 25 48 22 185 103 204 121 7 7 18 13 23 13 15 0 181 171 214 220 16
25 32 47 35 50 21 21 88 161 114 240 27 82 48 240 42 315 -7 74 -23 167 -36
200 -43 113 -61 152 -104 225 -28 47 -72 106 -98 133 l-47 47 -3 248 -3 247
-38 107 c-20 59 -37 112 -37 118 0 13 25 1 55 -27 11 -10 52 -43 90 -74 66
-53 146 -131 215 -209 38 -43 170 -239 200 -298 29 -56 96 -113 157 -134 27
-10 89 -22 138 -28 50 -5 127 -14 171 -19 107 -13 185 -34 275 -74 68 -29 82
-32 172 -31 53 0 97 -2 97 -6 0 -4 -11 -23 -24 -43 -41 -60 -86 -163 -86 -197
0 -85 137 -133 509 -180 90 -12 286 -14 359 -4 l52 7 0 -47 c0 -78 -26 -96
-215 -148 -62 -17 -125 -49 -185 -93 -137 -102 -178 -123 -451 -234 -193 -78
-384 -168 -410 -193 -8 -7 -31 -25 -52 -39 -21 -15 -57 -51 -79 -80 -35 -47
-40 -59 -35 -96 2 -23 13 -52 23 -65 17 -22 113 -134 139 -162 79 -86 76 -100
-44 -179 -148 -98 -192 -150 -204 -240 -6 -39 -32 -95 -135 -289 -43 -79 -66
-135 -72 -174 -10 -63 1 -196 26 -312 24 -113 27 -209 10 -306 -23 -128 -21
-158 23 -286 22 -63 60 -185 85 -270 41 -141 69 -220 112 -320 29 -67 49 -105
57 -108 4 -2 7 -9 7 -16 0 -14 90 -140 119 -166 34 -32 72 -51 116 -56 35 -5
52 -15 82 -48 22 -22 49 -57 61 -77 31 -51 112 -124 165 -149 55 -26 57 -33
57 -229 0 -162 22 -377 46 -455 22 -68 56 -100 102 -92 19 3 51 14 71 24 82
44 106 57 111 62 3 3 23 18 46 33 22 15 49 35 60 45 11 9 42 35 69 57 65 52
251 236 301 300 69 88 78 98 128 152 55 60 108 88 190 104 55 10 150 58 191
96 47 44 113 74 180 80 87 8 116 32 167 139 44 93 60 104 157 104 112 1 239
66 292 150 22 35 47 117 59 192 23 144 31 181 46 204 9 13 19 24 23 24 4 0 17
10 30 21 24 22 191 132 226 149 42 19 159 106 178 132 20 27 20 28 2 102 -17
77 -16 144 6 226 20 78 49 209 59 272 8 56 7 80 -6 135 -9 38 -21 73 -25 78
-26 34 -68 270 -69 380 0 126 10 145 78 145 81 0 173 -43 224 -105 34 -41 32
-96 -17 -390 -25 -153 -34 -281 -35 -512 0 -122 -3 -223 -8 -225 -4 -1 -32
-34 -62 -73 -30 -38 -57 -72 -61 -75 -10 -8 -126 -186 -187 -285 -53 -88 -113
-171 -167 -230 -42 -47 -55 -87 -55 -172 0 -94 -15 -235 -28 -260 -28 -55
-103 -215 -122 -258 -11 -27 -25 -57 -29 -66 -5 -8 -16 -44 -25 -78 -15 -57
-15 -66 0 -96 16 -35 28 -40 121 -55 60 -10 120 -36 211 -92 141 -86 161 -112
211 -275 43 -141 94 -255 168 -379 24 -39 43 -76 43 -82 0 -6 4 -12 8 -14 4
-1 19 -21 32 -43 26 -44 106 -151 132 -177 31 -31 58 -32 118 -3 37 18 66 26
81 22 35 -9 111 -84 169 -167 13 -19 27 -37 30 -40 19 -18 80 -100 80 -109 0
-6 4 -11 8 -11 5 0 29 -28 54 -62 69 -94 195 -224 249 -258 67 -41 107 -46
163 -22 25 11 58 32 73 46 40 38 83 49 131 36 22 -5 45 -17 52 -25 7 -8 18
-15 25 -15 8 0 15 -3 17 -7 9 -23 190 -124 244 -137 14 -4 80 -13 147 -21 171
-21 239 -44 552 -190 28 -13 77 -33 110 -45 33 -13 69 -26 80 -30 91 -36 264
-70 351 -70 116 0 340 43 409 78 113 57 103 136 -60 437 -71 132 -98 179 -151
267 -30 49 -54 91 -54 94 0 2 -11 22 -25 44 -14 22 -25 44 -25 50 0 10 205
235 300 330 19 20 60 67 90 105 30 39 57 72 61 75 13 10 39 70 39 90 0 11 -4
28 -9 38 -5 9 -32 62 -59 117 -27 55 -61 122 -76 149 -25 48 -37 140 -18 148
4 1 22 26 40 54 l32 51 -20 79 c-17 71 -18 81 -4 102 36 54 107 53 219 -4 46
-24 78 -34 84 -29 5 6 48 168 97 360 l88 350 6 205 c3 134 10 213 18 227 21
38 13 152 -26 346 -33 160 -36 191 -25 207 13 18 62 52 223 155 140 90 170
116 170 150 -1 101 -139 349 -289 521 -95 109 -141 144 -187 144 -21 0 -44 17
-93 68 -79 81 -91 91 -206 167 -98 66 -107 72 -156 99 -65 36 -354 210 -366
220 -33 29 -43 36 -48 36 -13 0 -103 77 -177 152 -184 188 -260 377 -198 498
53 103 129 153 233 154 l68 1 42 -46 c60 -66 79 -91 162 -214 41 -60 92 -136
114 -168 23 -31 41 -61 41 -66 0 -5 3 -11 8 -13 4 -1 30 -34 57 -73 97 -138
207 -281 257 -333 l50 -52 64 5 c236 19 218 13 291 93 l51 57 124 -42 c68 -23
204 -69 303 -103 99 -33 187 -65 196 -70 38 -21 84 -22 109 -2 14 10 87 61
164 112 l138 93 197 -28 c108 -15 241 -33 296 -40 55 -8 152 -21 215 -30 63
-9 160 -23 215 -30 55 -8 161 -24 235 -35 74 -11 169 -25 210 -30 41 -5 87
-12 101 -15 22 -5 30 1 61 47 51 75 114 181 161 268 22 41 55 101 73 133 19
32 34 62 34 68 0 5 5 9 10 9 6 0 10 5 10 10 0 10 38 69 51 80 4 3 30 37 59 75
29 39 56 72 59 75 4 3 22 25 40 50 19 25 39 50 45 55 6 6 27 30 46 55 30 39
98 121 241 292 65 77 92 108 139 163 53 62 99 117 137 167 15 20 48 47 73 60
25 14 77 42 115 63 160 86 181 98 196 111 8 8 20 14 26 14 20 0 23 32 6 60
-16 27 -15 32 2 92 10 35 35 90 54 123 74 124 85 156 86 228 0 65 -2 70 -30
93 -38 30 -86 31 -244 5 -170 -29 -273 -34 -386 -22 -185 21 -297 65 -405 158
-93 79 -143 99 -279 113 -85 8 -128 17 -168 36 -81 39 -88 55 -88 209 l0 130
-50 95 c-57 110 -80 140 -148 198 -21 17 -40 22 -81 22 -61 0 -66 6 -66 75 0
72 -11 91 -94 162 -30 26 -86 56 -136 71 -73 24 -195 34 -495 41 -255 7 -315
11 -340 24 -29 16 -35 15 -105 -9 -123 -42 -386 -89 -632 -114 -137 -14 -184
-5 -194 37 -9 33 3 154 16 167 5 5 10 16 10 24 0 8 6 28 14 45 8 18 31 70 52
117 34 79 80 169 142 280 13 25 51 95 83 156 l59 111 -38 11 c-78 25 -174 42
-299 53 -111 11 -154 10 -308 -5 -201 -20 -206 -19 -275 41 -89 77 -139 96
-308 117 -109 14 -134 14 -227 1 -103 -14 -180 -34 -242 -61 -17 -8 -34 -14
-38 -14 -3 0 -50 -21 -103 -46 -129 -62 -130 -62 -187 -74 -69 -15 -148 1
-235 49 -9 5 -31 12 -50 16 -19 4 -41 11 -50 16 -8 4 -49 18 -90 30 -104 29
-168 48 -212 61 -24 7 -42 8 -50 2 -7 -6 -40 -20 -73 -33 -84 -32 -190 -80
-405 -183 -132 -64 -166 -89 -175 -130 -9 -37 -22 -60 -80 -138 -76 -101 -96
-156 -150 -402 -34 -160 -57 -226 -82 -235 -32 -13 -65 8 -86 55 -37 81 -29
222 29 542 14 74 34 167 45 205 17 57 100 265 164 410 22 49 95 217 116 265
11 25 24 54 29 65 12 27 44 102 61 144 8 18 30 66 49 105 33 67 37 71 70 73
503 32 1013 77 1330 117 63 9 153 20 200 26 317 39 1014 168 1217 224 26 7 92
25 145 40 53 14 125 35 160 46 35 12 99 33 143 47 70 23 212 77 270 103 11 5
43 19 70 31 63 27 203 96 275 136 30 17 71 39 90 49 19 11 40 25 47 31 8 7 51
31 97 53 95 48 117 47 170 -6 50 -50 104 -135 117 -185 15 -60 35 -314 48
-619 14 -322 40 -563 91 -858 44 -258 147 -484 305 -671 38 -45 192 -197 230
-226 21 -17 52 -41 69 -55 56 -46 231 -170 240 -170 3 0 40 -22 83 -50 43 -27
81 -50 85 -50 4 0 41 -20 81 -45 41 -25 80 -45 86 -45 6 0 11 -4 11 -8 0 -4
12 -13 28 -19 15 -7 56 -28 92 -49 36 -20 94 -52 130 -71 36 -19 72 -38 80
-43 8 -5 74 -44 145 -86 149 -88 361 -233 385 -263 3 -3 28 -24 55 -46 65 -52
92 -75 124 -104 14 -13 55 -49 90 -80 98 -85 283 -270 321 -321 19 -25 45 -56
57 -69 41 -46 92 -163 99 -227 6 -57 -7 -144 -27 -184 -21 -41 -64 -128 -73
-147 -6 -13 -14 -23 -18 -23 -5 0 -8 -6 -8 -14 0 -8 -6 -21 -13 -28 -7 -7 -16
-20 -20 -28 -4 -8 -15 -27 -25 -42 -9 -15 -36 -57 -60 -95 -23 -37 -63 -99
-87 -138 -49 -77 -105 -187 -130 -256 -12 -32 -18 -92 -22 -220 -6 -204 -1
-231 73 -374 64 -125 106 -185 193 -277 68 -72 178 -158 202 -158 5 0 9 -4 9
-8 0 -4 26 -17 58 -27 45 -16 84 -20 182 -20 117 0 129 2 183 28 203 100 286
293 331 772 37 385 61 525 90 525 12 0 24 -35 64 -180 76 -282 131 -388 237
-463 83 -58 137 -71 273 -65 129 6 202 23 289 70 201 106 349 263 405 427 28
85 30 202 4 281 -43 126 -127 228 -421 510 -203 194 -254 264 -255 348 0 62
25 108 85 153 91 69 217 118 363 143 222 38 307 9 552 -187 102 -81 140 -105
140 -88 0 18 -132 202 -186 260 -116 124 -242 179 -430 188 -176 9 -328 -21
-474 -91 -76 -36 -76 -36 -147 -101 -100 -90 -138 -175 -138 -306 0 -47 5 -97
11 -110 43 -94 81 -162 96 -176 10 -9 18 -22 18 -29 0 -7 4 -14 8 -16 5 -1 38
-37 73 -78 36 -41 79 -89 95 -106 16 -16 66 -68 110 -115 112 -116 172 -188
192 -228 22 -48 19 -131 -8 -186 -54 -111 -253 -225 -393 -225 -78 0 -100 35
-147 245 -38 170 -49 203 -105 318 -68 139 -153 197 -292 197 -132 0 -239 -55
-322 -165 -23 -30 -41 -57 -41 -61 0 -3 -6 -20 -14 -37 -48 -108 -74 -258
-111 -637 -19 -189 -58 -373 -89 -415 -20 -27 -78 -23 -126 9 -117 77 -215
219 -255 369 -24 87 14 191 157 427 38 63 74 124 81 135 7 11 14 22 17 25 11
10 80 132 80 140 0 5 3 10 8 12 14 6 99 183 121 253 53 167 35 371 -50 553
-16 35 -29 65 -29 69 0 7 -89 141 -112 168 -83 100 -88 108 -77 121 6 8 18 14
25 14 8 0 14 5 14 10 0 6 6 10 13 10 45 0 238 167 302 261 17 24 33 46 38 47
4 2 7 10 7 17 0 8 6 20 13 27 47 50 163 347 209 537 28 118 36 303 15 354 -22
52 -44 58 -76 20 -57 -66 -71 -84 -71 -92 0 -5 -6 -16 -13 -23 -13 -14 -77
-115 -77 -123 0 -2 -13 -23 -29 -47 -16 -24 -32 -53 -35 -65 -4 -13 -11 -23
-16 -23 -4 0 -10 -8 -14 -17 -3 -10 -11 -27 -18 -38 -7 -11 -37 -58 -66 -105
-99 -156 -126 -192 -228 -299 l-81 -84 -124 11 c-151 15 -237 37 -334 89 -47
25 -170 106 -173 115 -2 4 -8 8 -13 8 -11 0 -72 42 -77 53 -2 4 -8 7 -14 7 -6
0 -58 29 -117 64 -106 63 -245 140 -416 231 -268 142 -365 195 -407 222 -21
12 -40 23 -43 23 -8 0 -160 95 -163 103 -2 4 -8 7 -13 7 -9 0 -65 36 -79 50
-3 3 -25 18 -48 33 -41 27 -172 136 -218 181 -82 83 -179 249 -214 369 -36
124 -41 144 -89 367 -39 179 -90 567 -106 800 -12 182 -36 345 -62 420 -42
124 -106 231 -182 305 -28 27 -51 56 -51 65 0 13 59 55 178 125 9 6 36 23 59
38 24 15 47 27 52 27 5 0 11 4 13 9 3 9 240 125 278 136 14 4 30 11 35 15 19
14 198 70 225 70 15 0 38 8 51 18 13 10 42 26 64 36 22 9 47 21 55 25 9 5 31
12 50 16 19 4 41 11 50 16 8 4 56 21 106 38 50 17 143 50 207 75 84 31 119 41
125 32 5 -6 26 -41 45 -78 40 -75 59 -100 132 -174 91 -92 197 -142 322 -151
81 -6 114 -21 178 -77 77 -68 340 -215 357 -198 4 4 17 86 28 182 22 192 24
205 47 300 42 179 68 170 374 -125 78 -75 145 -131 175 -145 44 -22 169 -106
201 -136 24 -23 139 -82 192 -99 30 -10 81 -18 112 -19 54 -1 60 1 98 38 38
37 41 38 71 26 60 -25 192 16 255 79 43 43 54 56 71 87 29 51 102 54 202 8 63
-29 139 -44 221 -44 111 0 247 -55 344 -138 173 -148 208 -165 246 -116 19 24
27 54 51 189 5 33 19 72 30 87 26 35 25 53 -4 114 -71 149 -81 177 -100 309
-44 290 -59 624 -46 969 l5 129 -115 58 c-63 32 -249 124 -413 205 -165 81
-301 154 -304 161 -3 8 3 20 13 28 15 12 284 178 369 228 11 7 22 14 25 17 3
3 25 18 50 32 66 38 194 142 224 181 35 46 34 90 -3 128 -25 25 -37 29 -83 29
-111 0 -351 -66 -678 -185 -230 -84 -360 -125 -396 -125 -48 0 -72 22 -98 92
-18 49 -78 111 -122 128 -59 23 -141 5 -349 -78 -27 -11 -113 -43 -190 -72
-77 -28 -148 -55 -157 -61 -10 -5 -26 -9 -35 -9 -19 1 -83 54 -83 69 0 5 -5
11 -12 13 -21 7 -21 109 0 148 21 40 108 102 167 121 91 28 139 31 570 39 396
7 459 10 525 27 97 25 182 68 239 119 57 52 58 80 4 196 -49 104 -57 133 -42
159 6 12 52 65 103 119 50 54 102 120 115 147 14 26 44 78 68 115 23 37 43 69
43 73 0 3 11 28 25 57 14 28 25 56 25 61 0 5 6 23 14 40 38 87 107 289 104
305 -2 12 -14 18 -43 20 -80 5 -146 63 -112 96 9 9 19 16 24 16 14 0 43 59 49
101 8 50 42 84 125 127 79 40 115 72 124 110 5 26 -9 159 -35 317 -5 28 -9 69
-9 92 l-1 43 108 52 c59 29 109 55 112 58 3 3 38 22 79 43 82 43 90 48 137 95
56 56 44 106 -45 187 -25 22 -52 47 -61 56 -14 13 -104 69 -162 100 -24 12
-243 69 -269 69 -30 0 -202 41 -213 51 -6 5 -16 9 -24 9 -11 0 -35 9 -127 50
-51 23 -139 40 -203 40 -76 0 -79 2 -117 73 -35 65 -65 82 -138 81 -68 -2
-111 -13 -330 -85 -82 -27 -154 -49 -160 -49 -7 0 -31 21 -55 45 -24 25 -49
45 -56 45 -62 0 -310 -124 -460 -228 -77 -55 -80 -56 -160 -60 -45 -2 -106 1
-136 8 -30 6 -74 14 -97 17 -38 5 -43 3 -57 -26 -9 -17 -25 -83 -36 -148 -27
-162 -38 -199 -76 -248 -55 -73 -54 -64 -54 -392 l0 -308 -37 -40 c-61 -69
-131 -188 -192 -330 -12 -27 -29 -63 -37 -78 -9 -15 -21 -38 -27 -50 -39 -72
-70 -87 -145 -67 -47 13 -92 44 -92 64 0 6 14 27 31 46 16 19 41 49 56 65 14
17 55 62 92 100 81 86 103 113 124 151 22 40 57 121 57 133 0 5 3 11 8 13 4 2
16 20 26 41 11 20 35 55 54 77 39 47 39 52 -12 163 -77 165 -83 242 -31 346
57 112 42 182 -57 275 l-61 57 7 75 7 74 -48 53 c-50 54 -67 82 -78 130 -3 15
-26 52 -50 82 -43 54 -65 105 -65 156 0 97 -77 420 -125 525 -42 91 -67 102
-131 56z m-560 -5060 c5 -9 -16 -89 -33 -127 -48 -108 -74 -229 -76 -364 -1
-95 -5 -125 -16 -131 -15 -9 -194 -70 -203 -70 -10 0 -7 91 3 124 6 17 25 78
42 136 78 253 184 440 249 440 16 0 31 -4 34 -8z m-5088 -818 c32 -33 34 -39
34 -108 0 -52 -6 -84 -20 -114 -31 -63 -59 -77 -160 -77 -47 0 -98 4 -114 8
-27 8 -28 11 -24 51 6 47 37 126 50 126 4 0 8 5 8 11 0 14 56 88 89 116 17 15
40 22 65 23 32 0 45 -6 72 -36z m-7684 -72 c40 -26 73 -67 128 -157 47 -79
120 -226 155 -315 9 -25 21 -52 25 -60 4 -9 11 -31 14 -50 4 -19 11 -44 16
-55 5 -11 14 -42 20 -70 19 -84 38 -167 55 -235 8 -36 22 -96 29 -135 8 -38
18 -78 21 -87 4 -10 5 -24 2 -32 -7 -16 -121 15 -348 96 -163 59 -183 69 -187
95 -2 11 33 92 77 179 43 88 82 168 85 179 3 11 0 74 -8 140 -14 120 -39 210
-81 295 -38 76 -68 177 -61 205 8 30 21 31 58 7z m3894 -302 c85 -29 124 -64
131 -117 12 -88 -69 -228 -158 -273 -40 -21 -121 -27 -161 -11 -13 4 -50 17
-83 27 -33 10 -71 25 -84 33 -22 14 -23 19 -17 70 12 107 73 239 129 279 29
21 39 23 107 18 41 -3 102 -15 136 -26z m-10636 -1133 c0 -11 -90 -77 -105
-77 -3 0 -25 -8 -48 -19 -23 -10 -59 -21 -79 -25 -33 -6 -38 -4 -38 12 0 16
35 56 84 92 33 25 186 39 186 17z m12045 -248 c122 -15 223 -33 400 -75 73
-17 100 -23 335 -73 151 -33 279 -58 341 -68 l36 -5 6 -147 c5 -126 29 -315
53 -429 6 -28 4 -34 -14 -39 -25 -6 -29 -22 -37 -182 -13 -245 -78 -601 -110
-601 -6 0 -32 18 -56 41 -99 93 -95 91 -249 100 -155 10 -173 15 -340 100
-102 52 -108 54 -210 60 -95 6 -115 10 -210 52 -129 55 -162 63 -203 46 -18
-7 -34 -15 -37 -18 -3 -4 -23 -19 -46 -34 -22 -15 -49 -35 -60 -45 -10 -10
-26 -21 -34 -25 -8 -4 -26 -14 -40 -22 -32 -19 -104 -19 -166 0 -76 23 -143
19 -235 -15 -45 -16 -86 -33 -93 -38 -26 -21 -114 -42 -171 -42 -46 0 -95 11
-186 41 -156 52 -256 58 -331 21 -70 -35 -88 -62 -88 -136 0 -33 -5 -77 -10
-97 -11 -40 -23 -47 -145 -83 -33 -10 -68 -22 -77 -27 -10 -5 -25 -9 -33 -9
-19 0 -128 -37 -164 -56 -14 -8 -32 -14 -38 -14 -7 0 -13 -3 -13 -8 0 -4 -24
-23 -52 -42 l-53 -35 -173 -1 c-148 -1 -179 -4 -210 -20 -20 -11 -39 -22 -42
-26 -3 -3 -18 -10 -33 -13 -15 -4 -27 -11 -27 -15 0 -4 -12 -11 -27 -15 -15
-3 -30 -10 -33 -14 -3 -4 -52 -32 -110 -61 -331 -169 -400 -201 -475 -220
-132 -33 -303 -23 -358 20 -13 11 -35 48 -48 82 -44 119 -134 266 -218 355
-76 82 -246 172 -391 209 -75 19 -207 23 -330 10 l-85 -8 140 139 c119 119
209 202 345 317 14 12 63 50 110 86 47 35 87 66 90 69 19 22 389 263 515 337
27 16 57 34 67 39 104 61 327 190 343 199 11 6 22 13 25 17 3 3 28 17 55 31
48 24 59 25 285 32 236 7 290 11 495 40 269 39 488 81 785 151 358 85 422 99
575 125 177 29 285 42 430 50 163 9 511 3 630 -11z m1041 -1822 c7 -20 18 -90
24 -156 13 -130 3 -242 -23 -269 -22 -22 -53 0 -78 56 -26 55 -31 197 -10 272
20 71 53 141 64 137 6 -2 16 -20 23 -40z"/>
</g>
</svg>
